<svg xmlns="http://www.w3.org/2000/svg" viewBox="0 0 400 300" width="100%" height="100%">
  <rect x="20" y="20" width="20" height="260" rx="2" fill="#95a5a6" stroke="#7f8c8d" stroke-width="2"/>
  <rect x="25" y="30" width="10" height="15" fill="#7f8c8d" />
  <rect x="25" y="250" width="10" height="15" fill="#7f8c8d" />

  <rect x="5" y="60" width="15" height="40" rx="3" fill="#ecf0f1" stroke="#bdc3c7" stroke-width="2"/>
  <rect x="8" y="65" width="12" height="20" fill="#2c3e50" />
  <circle cx="10" cy="95" r="2" fill="#2ecc71" />
  <circle cx="16" cy="95" r="2" fill="#f1c40f" />

  <path d="M 40 40 L 340 40 L 340 200 L 260 200 L 260 220 L 120 220 L 120 200 L 40 200 Z" fill="#27ae60" stroke="#2ecc71" stroke-width="2"/>

  <rect x="40" y="55" width="50" height="50" rx="2" fill="#ecf0f1" stroke="#bdc3c7" stroke-width="2"/>
  <line x1="50" y1="55" x2="50" y2="105" stroke="#bdc3c7" stroke-width="1"/>
  <line x1="80" y1="55" x2="80" y2="105" stroke="#bdc3c7" stroke-width="1"/>

  <rect x="125" y="200" width="130" height="20" fill="#f1c40f" />
  <path d="M 125 200 L 255 200" stroke="#f39c12" stroke-width="2"/>
  
  <rect x="155" y="200" width="5" height="20" fill="#27ae60" stroke="none" />
  
  <g stroke="#d35400" stroke-width="1.5">
    <line x1="130" y1="200" x2="130" y2="220" />
    <line x1="135" y1="200" x2="135" y2="220" />
    <line x1="140" y1="200" x2="140" y2="220" />
    <line x1="145" y1="200" x2="145" y2="220" />
    <line x1="150" y1="200" x2="150" y2="220" />
    
    <line x1="165" y1="200" x2="165" y2="220" />
    <line x1="170" y1="200" x2="170" y2="220" />
    <line x1="175" y1="200" x2="175" y2="220" />
    <line x1="180" y1="200" x2="180" y2="220" />
    <line x1="185" y1="200" x2="185" y2="220" />
    <line x1="190" y1="200" x2="190" y2="220" />
    <line x1="195" y1="200" x2="195" y2="220" />
    <line x1="200" y1="200" x2="200" y2="220" />
    <line x1="205" y1="200" x2="205" y2="220" />
    <line x1="210" y1="200" x2="210" y2="220" />
    <line x1="215" y1="200" x2="215" y2="220" />
    <line x1="220" y1="200" x2="220" y2="220" />
    <line x1="225" y1="200" x2="225" y2="220" />
    <line x1="230" y1="200" x2="230" y2="220" />
    <line x1="235" y1="200" x2="235" y2="220" />
    <line x1="240" y1="200" x2="240" y2="220" />
    <line x1="245" y1="200" x2="245" y2="220" />
    <line x1="250" y1="200" x2="250" y2="220" />
  </g>

  <rect x="180" y="80" width="60" height="60" rx="4" fill="#2c3e50" stroke="#1a252f" stroke-width="2"/>
  <circle cx="190" cy="90" r="3" fill="#34495e" /> <rect x="260" y="100" width="15" height="30" rx="2" fill="#bdc3c7" stroke="#95a5a6" stroke-width="1"/>
  
  <rect x="180" y="150" width="40" height="20" rx="2" fill="#2c3e50" stroke="#1a252f" stroke-width="1"/>

  <rect x="150" y="100" width="8" height="15" fill="#f39c12" />
  <rect x="150" y="120" width="8" height="15" fill="#f39c12" />

  <g stroke="#2ecc71" stroke-width="2" fill="none" opacity="0.6">
    <path d="M 90 80 L 130 80 L 140 90 L 180 90" />
    <path d="M 90 90 L 120 90 L 130 100 L 180 100" />
    <path d="M 90 100 L 110 100 L 120 110 L 180 110" />
    <path d="M 210 140 L 210 160" />
    <path d="M 220 140 L 220 160" />
    <path d="M 190 150 L 190 170 L 180 180 L 180 200" />
    <path d="M 230 140 L 240 140 L 260 120" />
    <path d="M 240 110 L 260 110" />
  </g>

  <circle cx="55" cy="180" r="6" fill="#1e8449" stroke="#2ecc71" stroke-width="2"/>
  <circle cx="320" cy="55" r="6" fill="#1e8449" stroke="#2ecc71" stroke-width="2"/>
  <circle cx="320" cy="180" r="6" fill="#1e8449" stroke="#2ecc71" stroke-width="2"/>
</svg>